<svg xmlns="http://www.w3.org/2000/svg" width="91" height="91"><g fill="none" fill-rule="evenodd"><path fill="#FFF" fill-opacity=".01" d="M.625.83h90v90h-90z"/><path fill="#00D170" d="m26.217 7.758 1.645-.26a113.91 113.91 0 0 1 35.526 0l1.645.26a22.437 22.437 0 0 1 18.663 18.664l.26 1.644a113.916 113.916 0 0 1 0 35.527l-.26 1.644a22.437 22.437 0 0 1-18.663 18.664l-1.645.26a113.91 113.91 0 0 1-35.526 0l-1.645-.26A22.435 22.435 0 0 1 7.554 65.237l-.26-1.644a113.916 113.916 0 0 1 0-35.527l.26-1.644A22.438 22.438 0 0 1 26.217 7.758z"/><path d="M15.708 15.912h59.834v59.834H15.708z"/><path fill="#FFF" d="M65.501 23.422a1.078 1.078 0 0 1 1.332 1.046c0 .574-.06 3.424-.181 8.549a.936.936 0 0 1-.935.913h-1.633c4.736 5.52 6.536 9.572 5.399 12.158a.936.936 0 0 1-.856.56h-3.27c-5.092 0-11.457 5.086-11.457 11.445 0 .08-5.892.146-17.677.199-.233 0-.463-.042-.679-.125a8.726 8.726 0 1 1-17.248.08l-.095.047h-.542a1.87 1.87 0 0 1-1.861-2.039c.644-7.091 4.77-11.398 12.376-12.92-1.49-1.489-3.277-2.46-5.363-2.91a.936.936 0 0 1-.737-.914v-2.183c0-.484.37-.889.852-.932 8.924-.796 15.854-1.195 20.79-1.195 2.546 0 3.82.966 3.82 2.544 0 1.272-.646 2.909-1.384 3.93-.539.746-.55 2.57-.034 5.473.08.446.467.77.92.77h4.272c.965 0 1.892-.372 2.588-1.04 1.937-1.856 2.983-4.337 3.138-7.442.032-.636.04.131-.262-11.177-.498-.183-1.84-.373-4.026-.57a.934.934 0 0 1-.7-1.439l.108-.162c.506-.722.993-.997 1.461-.825.555.204 5.194.64 5.244.663.815.054 1.405-.898 1.758.075l.682 2.002a5.598 5.598 0 0 1 4.201-4.581zm1.13 27.04c4.921 0 8.91 3.986 8.91 8.902 0 4.917-3.989 8.903-8.91 8.903-4.922 0-8.912-3.986-8.912-8.903 0-4.916 3.99-8.902 8.911-8.902zm-39.704 5.34a3.74 3.74 0 1 0 3.74 3.739 3.74 3.74 0 0 0-3.74-3.74zm39.703-.354a3.92 3.92 0 0 0-3.925 3.916 3.92 3.92 0 0 0 3.925 3.916 3.92 3.92 0 0 0 3.926-3.916 3.922 3.922 0 0 0-3.926-3.916z"/></g></svg>