<svg xmlns="http://www.w3.org/2000/svg" width="90" height="91"><g fill="none" fill-rule="evenodd"><path fill="#FFF" fill-opacity=".01" d="M0 .78h90v90H0z"/><path fill="#00D170" d="m24.85 10.261 3.655-.609a102.36 102.36 0 0 1 33.656 0l3.655.609a18.7 18.7 0 0 1 15.37 15.37l.608 3.654a102.36 102.36 0 0 1 0 33.656l-.609 3.655a18.7 18.7 0 0 1-15.37 15.37l-3.654.608a102.36 102.36 0 0 1-33.656 0l-3.654-.609a18.697 18.697 0 0 1-15.37-15.37l-.609-3.654a102.36 102.36 0 0 1 0-33.656l.609-3.654a18.697 18.697 0 0 1 15.37-15.37z"/><path d="M14.958 15.738h59.834v59.834H14.958z"/><path fill="#FFF" d="M56.685 23.218A7.479 7.479 0 0 1 63.8 28.39l.076.252 2.368 8.286 3.562.001a2.493 2.493 0 1 1 0 4.986h-.453a8.07 8.07 0 0 1 2.94 5.928l.006.305v14.958h-1.247v3.117c0 .983-.76 1.79-1.724 1.864l-.146.006h-4.986a1.87 1.87 0 0 1-1.864-1.724l-.006-.146v-3.117H27.423v3.117a1.87 1.87 0 0 1-1.723 1.864l-.146.006h-4.987a1.87 1.87 0 0 1-1.864-1.724l-.005-.146v-3.117h-1.247V48.148l.005-.286a8.072 8.072 0 0 1 2.94-5.947h-.452a2.493 2.493 0 0 1-.163-4.981l.163-.005h3.561l2.369-8.287a7.477 7.477 0 0 1 6.928-5.42l.263-.005h23.62zm12.186 24.93h-6.928a4.958 4.958 0 0 0-4.603 3.116l-.733 1.835a.935.935 0 0 0 .868 1.282h11.396a.935.935 0 0 0 .935-.935v-4.363a.935.935 0 0 0-.935-.935zm-41.064 0h-6.929l-.109.006a.936.936 0 0 0-.826.929v4.363l.006.109c.054.465.45.826.93.826h11.395l.11-.007a.935.935 0 0 0 .758-1.275l-.733-1.835-.088-.206a4.957 4.957 0 0 0-4.515-2.91zm23.684 0H38.258a2.272 2.272 0 0 0-2.11 3.116 4.959 4.959 0 0 0 4.603 3.117h8.246a4.959 4.959 0 0 0 4.603-3.117 2.272 2.272 0 0 0-2.11-3.116zm5.263-20.008h-23.98c-1.278 0-2.721.968-3.207 2.15l-2.144 10.379h34.903L59.961 30.29c-.486-1.182-1.929-2.15-3.207-2.15z"/><path d="m23.67 2.277.847-.115a150.63 150.63 0 0 1 38.953-.23l2.61.345A25.913 25.913 0 0 1 88.254 24.45l.115.847a150.697 150.697 0 0 1 0 40.717l-.115.847A25.915 25.915 0 0 1 66.08 89.034l-.847.115a150.697 150.697 0 0 1-40.717 0l-.847-.115A25.913 25.913 0 0 1 1.497 66.86l-.115-.847a150.63 150.63 0 0 1-.23-38.953l.345-2.61A25.912 25.912 0 0 1 23.67 2.277z"/></g></svg>