<svg xmlns="http://www.w3.org/2000/svg" width="91" height="91"><g fill="none" fill-rule="evenodd"><path fill="#FFF" fill-opacity=".01" d="M.625.935h90v90h-90z"/><path fill="#FB0" d="m25.777 8.39 2.155-.323a118.244 118.244 0 0 1 35.088 0l2.155.323a21.052 21.052 0 0 1 17.697 17.697l.323 2.155a118.244 118.244 0 0 1 0 35.088l-.323 2.155a21.052 21.052 0 0 1-17.697 17.697l-2.155.323a118.244 118.244 0 0 1-35.088 0l-2.155-.323A21.052 21.052 0 0 1 8.08 65.485l-.323-2.155a118.244 118.244 0 0 1 0-35.088l.323-2.155A21.052 21.052 0 0 1 25.777 8.39z"/><path d="M19.705 20.015h51.84v51.84h-51.84z"/><path fill="#FFF" d="m36.708 55.045.1.07 7.062 5.666a.951.951 0 0 1 .348.62l.008.123v6.756a.954.954 0 0 1-1.43.825l-.1-.067L30 59.383a.953.953 0 0 1 .053-1.555l.104-.06 5.635-2.765a.953.953 0 0 1 .916.042zm18.91-.042 5.634 2.766a.953.953 0 0 1 .157 1.614l-12.697 9.655a.951.951 0 0 1-1.53-.758v-6.756c0-.289.132-.562.357-.743l7.062-5.666a.953.953 0 0 1 1.016-.112zm-9.485-21.501.11.084 8.507 7.391c.263.229.403.565.384.909l-.014.129-1.76 10.173a1.132 1.132 0 0 1-.3.59l-.1.09-6.705 5.42c-.382.308-.915.33-1.318.067l-.107-.08-6.48-5.419a1.116 1.116 0 0 1-.38-.639l-2.183-10.825 8.985-7.806a1.12 1.12 0 0 1 1.361-.084zM26.455 39.13l.107.029 5.854 1.968c.29.098.512.327.604.614l.028.11 1.865 9.71a.955.955 0 0 1-.417.979l-.1.057-5.597 2.738a.954.954 0 0 1-1.34-.608l-.022-.109-2.121-14.417a.952.952 0 0 1 1.14-1.071zm39.156.628a.952.952 0 0 1 .04.443l-2.122 14.417a.952.952 0 0 1-1.361.717l-5.597-2.738a.954.954 0 0 1-.517-1.036l1.865-9.71a.953.953 0 0 1 .632-.724l5.853-1.968c.5-.168 1.04.1 1.207.6zm-20.373-.946a1.08 1.08 0 0 0-1.525-.069l-4.254 3.886-.128.14a1.082 1.082 0 0 0-.2.885l1.236 5.73.058.186a1.08 1.08 0 0 0 1.226.642l.186-.058a1.08 1.08 0 0 0 .642-1.225l-1.107-5.126 3.797-3.465.132-.144a1.08 1.08 0 0 0-.063-1.382zm-1.187-16.693a.956.956 0 0 1 .205.592v7.315c0 .28-.123.546-.337.727l-9.293 7.878a.957.957 0 0 1-.94.17l-6.81-2.458a.953.953 0 0 1-.268-1.644l16.104-12.736a.955.955 0 0 1 1.339.156zm4.443-.224.099.068L64.648 34.66a.953.953 0 0 1-.192 1.613l-.103.04-7.29 2.386a.951.951 0 0 1-.828-.115l-.1-.077-8.765-7.755a.959.959 0 0 1-.315-.598l-.007-.116v-7.327a.953.953 0 0 1 1.446-.816z"/></g></svg>