<svg xmlns="http://www.w3.org/2000/svg" width="90" height="91"><g fill="none" fill-rule="evenodd"><path fill="#FFF" fill-opacity=".01" d="M0 .78h90v90H0z"/><path fill="#F23DA7" d="m25.3 8.384 2.156-.323a118.244 118.244 0 0 1 35.088 0l2.155.323a21.052 21.052 0 0 1 17.697 17.697l.323 2.155a118.244 118.244 0 0 1 0 35.088l-.323 2.155a21.052 21.052 0 0 1-17.697 17.697l-2.155.323a118.244 118.244 0 0 1-35.088 0l-2.155-.323A21.052 21.052 0 0 1 7.604 65.479l-.323-2.155a118.244 118.244 0 0 1 0-35.088l.323-2.155A21.052 21.052 0 0 1 25.301 8.384z"/><path d="M16.5 17.28h56.14v56.14H16.5z"/><path fill="#FFF" d="M42.231 21.958a2.347 2.347 0 0 1 2.34 2.34v14.035c0 4.641-2.682 7.66-8.045 9.057-.773.202-1.313.9-1.313 1.698v14.976a2.346 2.346 0 0 1-2.339 2.339 2.347 2.347 0 0 1-2.339-2.34V49.089c0-.798-.54-1.496-1.312-1.698-5.363-1.397-8.045-4.416-8.045-9.057V24.298a2.347 2.347 0 0 1 2.34-2.34 2.347 2.347 0 0 1 2.339 2.34v14.035h4.678V24.298a2.347 2.347 0 0 1 2.34-2.34 2.346 2.346 0 0 1 2.338 2.34v14.035h4.679V24.298a2.346 2.346 0 0 1 2.339-2.34zm16.374 0c7.507 0 10.527 9.27 10.527 14.035l-.009 2.34c.006 4.267-2.454 7.999-7.38 11.195a1.754 1.754 0 0 0-.799 1.471v13.65c0 .968-.785 1.754-1.754 1.754h-1.17a1.755 1.755 0 0 1-1.754-1.755V51.05c0-.62-.327-1.193-.86-1.509-4.885-2.895-7.326-6.631-7.325-11.208l-.002-2.34c0-4.766 3.02-14.035 10.526-14.035z"/></g></svg>