<svg xmlns="http://www.w3.org/2000/svg" width="91" height="91"><g fill="none" fill-rule="evenodd"><path fill="#FFF" fill-opacity=".01" d="M.625.91h90v90h-90z"/><path fill="#3939E6" d="m25.925 8.514 2.156-.323a118.244 118.244 0 0 1 35.088 0l2.155.323a21.052 21.052 0 0 1 17.697 17.697l.323 2.155a118.244 118.244 0 0 1 0 35.088l-.323 2.155a21.052 21.052 0 0 1-17.697 17.697l-2.155.323a118.244 118.244 0 0 1-35.088 0l-2.155-.323A21.052 21.052 0 0 1 8.229 65.609l-.323-2.155a118.244 118.244 0 0 1 0-35.088l.323-2.155A21.052 21.052 0 0 1 25.926 8.514z"/><path d="M17.125 17.41h56.14v56.14h-56.14z"/><path fill="#FFF" d="M68.587 40.778c1.824 0 2.329.526 2.34 2.34v2.339c0 1.824-.516 2.339-2.34 2.339h-2.34l-3.599 17.746c-.4 2.035-1.488 3.307-3.418 3.307H31.16c-1.93 0-3.776-1.272-4.177-3.307l-2.84-17.746h-2.34c-1.824 0-2.339-.515-2.339-2.34v-2.338c0-1.825.515-2.34 2.34-2.34zm-32.767 9.63a1.863 1.863 0 0 0-1.866 1.867v10.44c0 1.002.801 1.867 1.866 1.867a1.863 1.863 0 0 0 1.867-1.867v-10.44a1.864 1.864 0 0 0-1.867-1.866zm5.99 0a1.863 1.863 0 0 0-1.866 1.867v10.44c0 1.002.801 1.867 1.866 1.867a1.863 1.863 0 0 0 1.867-1.867v-10.44c0-1.001-.865-1.866-1.867-1.866zm6.022 0c-1.002 0-1.867.866-1.867 1.867v10.44c0 1.066.865 1.867 1.867 1.867a1.863 1.863 0 0 0 1.866-1.867v-10.44a1.863 1.863 0 0 0-1.866-1.866zm5.99 0a1.864 1.864 0 0 0-1.867 1.867v10.44c0 1.066.865 1.867 1.866 1.867a1.864 1.864 0 0 0 1.867-1.867v-10.44a1.863 1.863 0 0 0-1.867-1.866zM39.266 25.394a1.942 1.942 0 1 1 3.353 1.962l-10.204 11.84h-4.503zm9.125-.696a1.935 1.935 0 0 1 2.658.696l11.353 13.792H57.9L47.695 27.355a1.934 1.934 0 0 1 .696-2.658z"/></g></svg>