<svg xmlns="http://www.w3.org/2000/svg" width="129" height="85"><g fill="none" fill-rule="evenodd"><path fill="#F0F0F0" fill-rule="nonzero" d="M128.677 70.45C124.187 29.485 102.824 9 64.588 9c-14.197 0-27.325 4.613-37.985 12.427a3.198 3.198 0 0 1-3.494.205 10.957 10.957 0 0 0-6.641-1.411c-5.22.533-9.42 4.817-9.893 10.073-.25 2.829.546 5.46 2.05 7.551.73 1.016.751 2.39.125 3.48C5.329 47.233 2.58 56.97.503 70.54a3.001 3.001 0 0 0 2.972 3.454l122.225-.216a3 3 0 0 0 2.977-3.327z" opacity=".305"/><circle cx="20" cy="2" r="2" fill="#E8E8E8" fill-rule="nonzero"/><path fill="#A3A3A3" d="M94.13 78a7.87 7.87 0 0 0 7.87-7.87V55a5 5 0 0 0-5-5H79l5.285 20.382A10.17 10.17 0 0 0 94.13 78z"/><path fill="#E1E1E1" d="m11.485 12.538-.313.99a.575.575 0 0 1-1.066.077l-.462-.954a.641.641 0 0 0-.578-.36l-1.064.003a.574.574 0 0 1-.395-.99l.753-.714a.64.64 0 0 0 .166-.67l-.334-.987a.573.573 0 0 1 .814-.686l.934.505a.64.64 0 0 0 .682-.047l.844-.618a.578.578 0 0 1 .911.57l-.186 1.024a.641.641 0 0 0 .258.635l.86.614a.57.57 0 0 1-.258 1.032l-1.038.134a.64.64 0 0 0-.528.442z"/><path fill="#ACACAC" d="M38.76 4h44.251a5.76 5.76 0 0 1 5.76 5.76v53.88c0 4.606 1.447 9.097 4.135 12.838L94 78H38.76A5.76 5.76 0 0 1 33 72.24V9.76A5.76 5.76 0 0 1 38.76 4z"/><path fill="#E6E6E6" d="M37.76 4h44.251a5.76 5.76 0 0 1 5.76 5.76v53.88c0 4.606 1.447 9.097 4.135 12.838L93 78H37.76A5.76 5.76 0 0 1 32 72.24V9.76A5.76 5.76 0 0 1 37.76 4z"/><path fill="#ACACAC" d="M43.44 29h28.12c.795 0 1.44.645 1.44 1.44v.12A1.44 1.44 0 0 1 71.56 32H43.44A1.44 1.44 0 0 1 42 30.56v-.12c0-.795.645-1.44 1.44-1.44zm34 0h2.12c.795 0 1.44.645 1.44 1.44v.12A1.44 1.44 0 0 1 79.56 32h-2.12A1.44 1.44 0 0 1 76 30.56v-.12c0-.795.645-1.44 1.44-1.44zm-16 19h18.12c.795 0 1.44.645 1.44 1.44v.12A1.44 1.44 0 0 1 79.56 51H61.44A1.44 1.44 0 0 1 60 49.56v-.12c0-.795.645-1.44 1.44-1.44zm0 9h18.12c.795 0 1.44.645 1.44 1.44v.12A1.44 1.44 0 0 1 79.56 60H61.44A1.44 1.44 0 0 1 60 58.56v-.12c0-.795.645-1.44 1.44-1.44zm-18-20h32.12c.795 0 1.44.645 1.44 1.44v.12A1.44 1.44 0 0 1 75.56 40H43.44A1.44 1.44 0 0 1 42 38.56v-.12c0-.795.645-1.44 1.44-1.44z"/><rect width="25" height="9" x="55" y="14" fill="#ACACAC" rx="2"/><rect width="7" height="2" x="33" y="49" fill="#ACACAC" rx="1"/><path fill="#151F33" d="M32.236 58.05h12.457v19.504h-1.78z"/><path fill="#FFB400" d="M26.898 56.277h16.015v28.369l-7.748-5.158-8.267 5.158z"/><path fill="#151F33" d="M21.56 53.488c.064-9.296 7.29-16.784 16.135-16.714 8.848.074 15.96 7.671 15.895 16.972-.066 9.3-7.29 16.784-16.135 16.715-8.845-.07-15.966-7.668-15.895-16.973z"/><path fill="#34D57B" d="M34.779 68.688C25.443 68.618 17.926 61.02 18 51.715 18.069 42.42 25.696 34.931 35.032 35c9.34.075 16.848 7.672 16.778 16.973-.069 9.3-7.695 16.784-17.031 16.715"/><path fill="#FFF" d="m39.652 47.94-6.345 5.749a.406.406 0 0 1-.533 0l-2.617-2.371c-.709-.643-1.863-.719-2.616-.12-.826.658-.857 1.798-.092 2.492l4.261 3.86c.735.666 1.928.666 2.663 0l7.989-7.238c.765-.693.734-1.833-.092-2.49-.755-.6-1.91-.525-2.618.117"/></g></svg>