<svg xmlns="http://www.w3.org/2000/svg" width="129" height="85" viewBox="0 0 129 85">
    <g fill="none" fill-rule="evenodd">
        <path fill="#F0F0F0" fill-rule="nonzero" d="M128.677 70.45C124.187 29.485 102.824 9 64.588 9c-14.197 0-27.325 4.613-37.985 12.427-1.024.753-2.395.84-3.494.205-1.924-1.112-4.209-1.66-6.641-1.411-5.22.533-9.42 4.817-9.893 10.073-.25 2.829.546 5.46 2.05 7.551.73 1.016.751 2.39.125 3.48C5.329 47.233 2.58 56.97.503 70.54c-.25 1.638.874 3.169 2.512 3.42.152.023.306.034.46.034l122.225-.216c1.657-.003 2.998-1.349 2.995-3.006 0-.107-.006-.214-.018-.321z" opacity=".305"/>
        <circle cx="20" cy="2" r="2" fill="#E8E8E8" fill-rule="nonzero"/>
        <path fill="#A3A3A3" d="M94.13 78c4.346 0 7.87-3.524 7.87-7.87V55c0-2.761-2.239-5-5-5H79l5.285 20.382C85.448 74.868 89.495 78 94.13 78z"/>
        <path fill="#E1E1E1" d="M11.485 12.538l-.313.99c-.095.302-.418.47-.721.375-.151-.048-.276-.156-.345-.298l-.462-.954c-.107-.22-.332-.361-.578-.36l-1.064.003c-.316.001-.574-.255-.575-.572 0-.158.064-.31.18-.418l.753-.714c.181-.171.246-.433.166-.67l-.334-.987c-.1-.3.06-.624.359-.725.15-.05.315-.037.455.039l.934.505c.217.117.483.099.682-.047l.844-.618c.258-.188.62-.132.808.126.094.128.13.288.103.444l-.186 1.024c-.044.244.057.491.258.635l.86.614c.258.184.317.54.134.797-.092.13-.234.215-.392.235l-1.038.134c-.247.032-.453.204-.528.442z"/>
        <path fill="#ACACAC" d="M38.76 4h44.251c3.182 0 5.76 2.579 5.76 5.76v53.88c0 4.606 1.447 9.097 4.135 12.838L94 78H38.76C35.579 78 33 75.421 33 72.24V9.76C33 6.579 35.579 4 38.76 4z"/>
        <path fill="#E6E6E6" d="M37.76 4h44.251c3.182 0 5.76 2.579 5.76 5.76v53.88c0 4.606 1.447 9.097 4.135 12.838L93 78H37.76C34.579 78 32 75.421 32 72.24V9.76C32 6.579 34.579 4 37.76 4z"/>
        <path fill="#ACACAC" d="M43.44 29h28.12c.795 0 1.44.645 1.44 1.44v.12c0 .795-.645 1.44-1.44 1.44H43.44c-.795 0-1.44-.645-1.44-1.44v-.12c0-.795.645-1.44 1.44-1.44zM77.44 29h2.12c.795 0 1.44.645 1.44 1.44v.12c0 .795-.645 1.44-1.44 1.44h-2.12c-.795 0-1.44-.645-1.44-1.44v-.12c0-.795.645-1.44 1.44-1.44zM61.44 48h18.12c.795 0 1.44.645 1.44 1.44v.12c0 .795-.645 1.44-1.44 1.44H61.44c-.795 0-1.44-.645-1.44-1.44v-.12c0-.795.645-1.44 1.44-1.44zM61.44 57h18.12c.795 0 1.44.645 1.44 1.44v.12c0 .795-.645 1.44-1.44 1.44H61.44c-.795 0-1.44-.645-1.44-1.44v-.12c0-.795.645-1.44 1.44-1.44zM43.44 37h32.12c.795 0 1.44.645 1.44 1.44v.12c0 .795-.645 1.44-1.44 1.44H43.44c-.795 0-1.44-.645-1.44-1.44v-.12c0-.795.645-1.44 1.44-1.44z"/>
        <rect width="25" height="9" x="55" y="14" fill="#ACACAC" rx="2"/>
        <rect width="7" height="2" x="33" y="49" fill="#ACACAC" rx="1"/>
        <g>
            <path fill="#151F33" d="M14.236 23.05L26.693 23.05 26.693 42.554 24.913 42.554z" transform="translate(18 35)"/>
            <path fill="#FFB400" d="M8.898 21.277L24.913 21.277 24.913 49.646 17.165 44.488 8.898 49.646z" transform="translate(18 35)"/>
            <path fill="#151F33" d="M3.56 18.488c.064-9.296 7.29-16.784 16.135-16.714 8.848.074 15.96 7.671 15.895 16.972-.066 9.3-7.29 16.784-16.135 16.715-8.845-.07-15.966-7.668-15.895-16.973z" transform="translate(18 35)"/>
            <path fill="#34D57B" d="M16.779 33.688C7.443 33.618-.074 26.02 0 16.715.069 7.42 7.696-.069 17.032 0c9.34.075 16.848 7.672 16.778 16.973-.069 9.3-7.695 16.784-17.031 16.715" transform="translate(18 35)"/>
            <path fill="#FFF" d="M21.652 12.94l-6.345 5.749c-.147.133-.386.133-.533 0l-2.617-2.371c-.709-.643-1.863-.719-2.616-.12-.826.658-.857 1.798-.092 2.492l4.261 3.86c.735.666 1.928.666 2.663 0l7.989-7.238c.765-.693.734-1.833-.092-2.49-.755-.6-1.91-.525-2.618.117" transform="translate(18 35)"/>
        </g>
    </g>
</svg>
