<svg xmlns="http://www.w3.org/2000/svg" width="91" height="91"><g fill="none" fill-rule="evenodd"><path fill="#FFF" fill-opacity=".01" d="M.375.935h90v90h-90z"/><path d="m25.527 8.39 2.155-.323a118.244 118.244 0 0 1 35.088 0l2.155.323a21.052 21.052 0 0 1 17.697 17.697l.323 2.155a118.244 118.244 0 0 1 0 35.088l-.323 2.155a21.052 21.052 0 0 1-17.697 17.697l-2.155.323a118.244 118.244 0 0 1-35.088 0l-2.155-.323A21.052 21.052 0 0 1 7.83 65.485l-.323-2.155a118.244 118.244 0 0 1 0-35.088l.323-2.155A21.052 21.052 0 0 1 25.527 8.39z" fill="#008EFA"/><path d="M57.97 20.039a4.722 4.722 0 0 1 4.708 4.709v42.374a4.723 4.723 0 0 1-4.708 4.709H34.428a4.722 4.722 0 0 1-4.708-4.709v-3.52a2.36 2.36 0 0 1 2.354-2.353 2.361 2.361 0 0 1 2.354 2.354v1.165H57.97V27.102H34.428v1.257a2.361 2.361 0 0 1-2.354 2.354 2.361 2.361 0 0 1-2.354-2.354v-3.611a4.722 4.722 0 0 1 4.708-4.709zm-8.688 13.419.372.014.362.04a5.124 5.124 0 0 1 4.386 5.066v14.714l-.014.372-.04.362a5.124 5.124 0 0 1-5.066 4.386h-20.6l-.371-.014-.362-.04a5.124 5.124 0 0 1-4.386-5.066V38.578l.013-.372.04-.362a5.125 5.125 0 0 1 5.067-4.386h20.599zm-20.547 4.353-.218.016-.134.037a.779.779 0 0 0-.465.714v2.234l3.708.003.28.007.366.035a5.123 5.123 0 0 1 4.474 5.078l-.013.366a5.12 5.12 0 0 1-5.107 4.754l-3.708-.002v2.239l.014.166.037.133c.105.26.388.466.714.466h20.599l.166-.014.133-.037a.78.78 0 0 0 .466-.714V38.578l-.014-.166-.037-.133a.778.778 0 0 0-.714-.466l-20.547-.002zm-.817 7.357v1.53l3.708.002.13-.009.143-.034a.774.774 0 0 0 .492-.722l-.016-.154a.765.765 0 0 0-.75-.611l-3.707-.002z" fill="#FFF"/></g></svg>