<svg xmlns="http://www.w3.org/2000/svg" width="500" height="508" viewBox="0 0 500 508">
    <g fill="none" fill-rule="evenodd">
        <g fill="#F4F4F4">
            <path d="M444.663 113.756c.513-2.978.673-6.077.436-9.253-1.377-18.404-16.357-33.237-34.773-34.448-3.76-.247-7.406.063-10.87.854-10.093 2.307-20.657.896-29.54-4.423-36.108-21.626-78.442-33.926-123.677-33.565-130.686 1.042-235.37 106.605-235.37 237.295 0 131.06 106.245 237.303 237.304 237.303 130.14 0 235.495-103.843 237.28-233.97.643-46.794-12.265-90.529-35.044-127.538-5.921-9.62-7.664-21.123-5.746-32.255M375.931 0c11.32 0 20.498 9.245 20.498 20.648 0 11.404-9.178 20.648-20.498 20.648s-20.498-9.244-20.498-20.648C355.433 9.245 364.61 0 375.931 0M421.406 30.055c8.636-1.901 16.159 5.572 14.245 14.15-.965 4.323-4.475 7.81-8.827 8.769-8.636 1.9-16.16-5.573-14.245-14.15.964-4.323 4.475-7.811 8.827-8.77M21.646 108.04c2.584 5.655.06 12.35-5.638 14.953-5.697 2.602-12.411.127-14.994-5.53-2.584-5.655-.059-12.35 5.638-14.953 5.697-2.602 12.411-.127 14.994 5.53"/>
        </g>
        <path fill="#E5E5E5" d="M466.859 233.953l-37.584-11.881c-1.48-.468-2.392-1.762-2.034-2.89l10.548-33.37 1.797-5.684c.357-1.13 1.846-1.664 3.326-1.196l37.35 11.808c1.482.467 2.393 1.76 2.036 2.89l-12.394 39.228c-.327 1.033-1.691 1.524-3.045 1.095M389.758 127.254l-42.603 5.447c-1.677.215-3.17-.648-3.334-1.927l-4.835-37.826-.824-6.444c-.164-1.279 1.064-2.49 2.742-2.705l42.34-5.412c1.677-.215 3.17.648 3.333 1.927l5.692 44.465c.15 1.17-.975 2.28-2.51 2.475"/>
        <path fill="#061C3F" d="M358.381 99.887l-12.51 32.762c.402.085.835.11 1.284.052l11.151-1.425 1.173-.52-1.098-30.87z"/>
        <path fill="#F3B63D" d="M414.254 158.897l-39.477-16.92c-1.554-.667-2.403-2.168-1.894-3.353l17.582-41.02c.508-1.186 2.18-1.606 3.734-.94l39.233 16.816c1.554.667 2.403 2.167 1.895 3.353l-17.654 41.204c-.465 1.085-1.996 1.47-3.419.86"/>
        <path fill="#F0543C" d="M306.182 137.444c-1.613-.323-2.721-1.582-2.474-2.812l8.53-42.567c.247-1.23 1.755-1.966 3.368-1.642l40.712 8.159c.376.075.725.2 1.035.366 1.022.543 1.629 1.503 1.44 2.446l-8.562 42.757c-.226 1.126-1.606 1.799-3.083 1.503l-40.966-8.21z"/>
        <path fill="#E5E5E5" d="M373.181 431.406l-157.448-.797c-6.201-.03-11.202-5.156-11.17-11.446l1.1-217.694c.033-6.29 5.085-11.364 11.287-11.333l156.473.792c6.201.031 11.202 5.155 11.171 11.445l-1.082 218.657c-.028 5.76-4.654 10.404-10.331 10.376"/>
        <path fill="#E5E5E5" d="M222.665 407.839l-154.092-9.037c-6.069-.357-10.672-6.041-10.282-12.698l13.512-230.38c.39-6.656 5.627-11.763 11.696-11.407l153.14 8.98c6.067.357 10.671 6.04 10.281 12.698l-13.548 231.4c-.357 6.093-5.15 10.77-10.707 10.444"/>
        <g>
            <path fill="#061C3F" d="M73.892 328.03l157.726-29.663c12.175-2.289 20.189-14.017 17.9-26.192l-47.31-251.557c-2.29-12.175-14.016-20.19-26.192-17.9L18.29 32.381C6.116 34.671-1.9 46.397.39 58.573L47.7 310.13c2.29 12.175 14.016 20.19 26.192 17.9" transform="translate(60.582 102.211)"/>
            <path fill="#00D170" d="M243.27 296.17c8.758-1.646 14.545-9.955 12.927-18.557L206.41 12.88C204.79 4.278 196.383-1.361 187.626.286L17.519 32.276C8.762 33.925 2.975 42.234 4.593 50.836l6.336 33.69c1.27 6.758 5.425 12.639 11.414 16.156l18.784 11.035c2.99 1.757 5.073 4.72 5.714 8.129l35.81 190.405c1.617 8.603 10.027 14.24 18.784 12.594L243.27 296.17z" transform="translate(60.582 102.211)"/>
        </g>
        <g>
            <path fill="#FFF" d="M231.001 23.757L47.365.109C40.133-.823 33.51 4.326 32.571 11.61L.111 263.674c-.938 7.284 4.164 13.943 11.398 14.875l182.5 23.501c7.231.932 13.854-4.216 14.794-11.5l32.633-253.176c.858-6.668-3.814-12.764-10.435-13.617" transform="translate(145.763 150.322)"/>
            <path fill="#061C3F" d="M134.412 76.638l70.39 9.065c2.023.26 3.874-1.168 4.134-3.191l1.74-13.502c.26-2.023-1.169-3.874-3.192-4.135l-70.39-9.065c-2.023-.26-3.874 1.168-4.134 3.19l-1.739 13.504c-.26 2.023 1.168 3.874 3.191 4.134M128.588 134.58l73.284 9.436c.59.076 1.13-.34 1.205-.93l.548-4.253c.076-.59-.34-1.13-.93-1.206l-73.284-9.437c-.59-.076-1.13.341-1.206.931l-.547 4.252c-.076.59.34 1.13.93 1.206M140.46 205.098l52.672 6.783c.59.076 1.13-.34 1.206-.93l.547-4.253c.076-.59-.34-1.129-.93-1.205l-52.673-6.784c-.59-.076-1.13.341-1.206.931l-.547 4.253c-.076.59.34 1.13.93 1.205" transform="translate(145.763 150.322)"/>
            <path fill="#E5E5E5" d="M151.83 94.187l52.672 6.783c.59.076 1.13-.34 1.205-.93l.548-4.253c.076-.59-.34-1.13-.93-1.206l-52.673-6.783c-.59-.076-1.13.341-1.206.931l-.548 4.252c-.076.59.341 1.13.931 1.206" transform="translate(145.763 150.322)"/>
            <path fill="#00D170" d="M30.093 231.435l54.341 6.997c.59.076 1.13-.34 1.206-.93l.548-4.253c.075-.589-.341-1.129-.931-1.206l-54.341-6.998c-.59-.076-1.13.341-1.206.931l-.548 4.253c-.076.59.341 1.13.931 1.206M28.214 246.024l20.617 2.655c.59.076 1.13-.34 1.206-.93l.547-4.253c.076-.59-.34-1.129-.93-1.205l-20.617-2.656c-.59-.076-1.13.341-1.206.931l-.548 4.253c-.075.59.341 1.13.931 1.205" transform="translate(145.763 150.322)"/>
            <path fill="#061C3F" d="M66.705 151.228l132.048 17.005c.59.076 1.13-.34 1.206-.93l.547-4.253c.076-.59-.34-1.13-.93-1.206L67.527 144.84c-.59-.076-1.129.341-1.205.931l-.548 4.252c-.076.59.341 1.13.931 1.206M41.325 170.28l154.601 19.91c.59.076 1.128-.34 1.205-.93l.548-4.253c.076-.59-.34-1.13-.93-1.205l-154.6-19.91c-.59-.076-1.13.34-1.207.93l-.548 4.253c-.075.59.341 1.13.931 1.206M45.73 123.909l73.283 9.437c.59.076 1.13-.34 1.206-.93l.548-4.253c.076-.59-.341-1.13-.931-1.206l-73.283-9.437c-.59-.076-1.13.34-1.206.93l-.548 4.253c-.075.59.34 1.13.93 1.206" transform="translate(145.763 150.322)"/>
        </g>
        <g>
            <path fill="#E5E5E5" d="M68.352 73.658L18.532 84.8c-1.428.319-2.845-.58-3.164-2.007L.064 14.372c-.319-1.428.58-2.844 2.007-3.164L51.891.065c1.428-.32 2.845.579 3.164 2.007L70.36 70.494c.32 1.428-.579 2.845-2.007 3.164" transform="translate(164.762 163.302)"/>
            <path fill="#FFF" d="M62.972 67.47l-41.84 9.359c-1.429.32-2.845-.58-3.164-2.007L5.132 17.434c-.319-1.428.58-2.844 2.007-3.164L48.98 4.91c1.428-.318 2.844.58 3.163 2.009L64.98 64.307c.32 1.428-.579 2.845-2.008 3.164" transform="translate(164.762 163.302)"/>
            <path fill="#0048D9" d="M54.343 59.9l-26.724 6.276c-1.41.331-2.755-.263-3.005-1.326l-3.866-16.46c-.252-1.076.712-2.218 2.142-2.535l22.094-4.906c1.187-.264 2.35.125 2.808.938l4.534 8.055 3.96 7.036c.63 1.12-.314 2.54-1.943 2.922" transform="translate(164.762 163.302)"/>
            <path fill="#FFF" d="M25.898 42.845c-.009 0 .372 1.302.378 1.304 1.392.534 2.376 1.712 3.501 2.643 1.11.918 2.197 1.817 3.174 2.886 3.473 3.8 5.758 8.748 5.6 13.97l11.76-2.76c-.183-1.633-.556-3.38-1.22-5.193-2.522-6.87-7.543-12.857-11.752-15.535L25.9 42.845" transform="translate(164.762 163.302)"/>
            <path fill="#E5E5E5" d="M39.473 27.718c-.709-2.334-1.678-4.511-2.739-5.826-3.045-3.772-13.995-3.156-12.547 5.394.346 2.036 1.268 3.776 2.497 5.236l2.281 9.716 4.74-1.113.394 1.288 4.278 2.956-1.716-7.308c1.305.2 2.371.148 2.942-.172 1.127-.631 1.258-3.241.78-6.248l.436-.09c.248-.051.382-.323.27-.551l-1.616-3.282z" transform="translate(164.762 163.302)"/>
            <path fill="#151F33" d="M38.687 23.704c1.23-.888.862-2.664.163-3.77-1.014-1.601-3.06-1.264-4.686-1.322-2.292-.081-4.682-.301-6.877.52-.469.176-.92.397-1.345.66-1.214.752-2.175 2.014-2.28 3.437-.023.282-.01.569-.083.843-.11.41-.379.747-.49 1.159-.112.42-.158.86-.14 1.296.076 1.868 1.558 3.93 2.752 5.24.796.872.865 1.274 1.355 2.348.234.513.834-.12 1.018-.347.391-.482.985-1.26.547-1.885-.13-.186-.328-.315-.497-.466-.767-.682-1.126-2.152-.516-3.044.26-.38.806-.557 1.248-.527.74.05.725.592.99 1.138.13.268.43.615.762.446.26-.131.31-.531.304-.788-.01-.422-.073-.844-.118-1.263-.03-.284-.213-.978.061-1.176.097-.07.218-.095.335-.118 1.407-.274 2.832-.501 4.212-.898.984-.283 2.276-.755 3.285-1.483" transform="translate(164.762 163.302)"/>
        </g>
        <g fill="#FF4232">
            <path d="M17.446 2.936c-5.047-.65-9.683 2.928-10.332 7.976L2.936 43.35c-.65 5.046 2.928 9.682 7.975 10.332 5.048.65 9.683-2.928 10.334-7.975l4.177-32.438c.65-5.047-2.928-9.683-7.976-10.333m-6.9 53.582C3.935 55.667-.751 49.596.1 42.984l4.177-32.438C5.129 3.934 11.2-.752 17.81.1c6.612.851 11.299 6.922 10.448 13.534L24.08 46.073c-.852 6.611-6.923 11.297-13.535 10.445" transform="translate(189.635 132.456)"/>
            <path d="M12.255 43.663l.02-.151c.08-.611.572-1.043 1.177-1.159 1.361-.258 2.464-1.365 2.65-2.811l2.576-20.001c.22-1.705-.804-3.42-2.478-3.813-1.924-.45-3.773.869-4.019 2.78l-2.837-.366c.46-3.563 3.9-6.026 7.49-5.203 3.126.718 5.08 3.865 4.67 7.047L18.94 39.907c-.356 2.759-2.498 4.859-5.113 5.285-.898.146-1.687-.626-1.57-1.529" transform="translate(189.635 132.456)"/>
        </g>
        <g>
            <path fill="#061C3F" d="M102.357 25.847l2.791-3.289.98.831c.53-.66 1.145-1.249 1.841-1.717l-1.203-1.02 4.28-5.043c2.96-3.49 2.532-8.72-.958-11.682-3.49-2.962-8.72-2.533-11.682.957L71.167 36.986 5.272 114.641c-.664.783-.79 1.833-.437 2.726-.166.107-.324.231-.457.39l-1.54 1.814c-.739.871-.632 2.174.238 2.913l7.074 6.002c.87.74 2.174.632 2.912-.239l1.54-1.814c.09-.107.167-.219.232-.336 1.05.437 2.301.183 3.077-.73l63.904-75.312 1.343-1.58 19.2-22.628z" transform="translate(269.905 352.886)"/>
            <path fill="#0048D9" d="M.685 120.445l7.264 6.163c.817.694 2.043.594 2.737-.224l1.701-2.004c.694-.818.594-2.044-.224-2.738L4.9 115.479c-.819-.694-2.044-.594-2.738.224l-1.7 2.005c-.695.818-.594 2.044.223 2.737" transform="translate(269.905 352.886)"/>
            <path fill="#00D170" d="M3.164 116.368l8.786 7.454c1.064.903 2.658.773 3.562-.292l84.55-99.641-12.638-10.725-84.551 99.64c-.903 1.066-.772 2.66.29 3.564" transform="translate(269.905 352.886)"/>
            <path fill="#0048D9" d="M104.47 18.693l4.28-5.043c2.96-3.489 2.532-8.72-.958-11.682-3.49-2.961-8.72-2.532-11.68.958L66.88 37.373l12.64 10.724L102.852 20.6l4.497 3.816c1.175.997 1.32 2.757.322 3.932L76.624 64.936c-.414.488-.354 1.22.134 1.634.565.479 1.411.41 1.891-.155l31.232-36.807c1.723-2.03 1.474-5.072-.557-6.796l-4.854-4.119z" transform="translate(269.905 352.886)"/>
        </g>
        <path fill="#F0543C" d="M65.36 360.587c-1.6-.41-2.564-2.04-2.154-3.64l7.544-29.428c.41-1.6 2.04-2.565 3.639-2.154l49.04 12.571c1.6.41 2.566 2.04 2.156 3.64l-7.544 29.43c-.411 1.598-2.04 2.563-3.64 2.153L65.36 360.587z"/>
        <path fill="#151F33" d="M106.261 359.358l3.885 12.2 1.265.834 2.99.767c1.6.41 3.23-.555 3.64-2.154l.444-1.733-12.224-9.914z"/>
        <path fill="#F3B63D" d="M114.2 390.126l-42.037 13.052c-1.577.49-3.253-.392-3.743-1.969l-7.75-24.959c-.49-1.577.392-3.253 1.969-3.743l42.038-13.053c1.578-.489 3.253.393 3.743 1.97l7.75 24.96c.489 1.576-.392 3.252-1.97 3.742"/>
        <g>
            <path fill="#061C3F" d="M36.706 68.027c3.188-1.077 4.848-4.428 3.771-7.616-1.077-3.189-4.428-4.848-7.617-3.771-3.188 1.076-4.847 4.428-3.771 7.616 1.077 3.188 4.542 4.809 7.617 3.771m-6.225-26.695c10.026-2.244 20.386 3.264 24.338 12.713 3.491 8.462 1.285 17.707-4.735 23.546-1.742 1.603-2.303 4.076-1.572 6.239l.615 1.822c.462 1.367 1.226 2.504 2.294 3.412l1.945 1.627c2.136 1.816 3.135 4.776 2.576 7.629-.558 2.853.403 5.7 2.576 7.63l.04.114c2.134 1.816 3.096 4.663 2.651 7.477l-.635 3.005c-.298 1.37-.103 2.699.32 3.952l.499 1.48c1.04 3.075-.62 6.426-3.695 7.464-3.074 1.039-6.426-.621-7.464-3.695L37.391 87.713c-.731-2.164-2.562-3.83-4.919-4.048-8.062-.957-15.077-6.326-17.845-14.526-4.151-11.918 3.095-25.021 15.854-27.807M54.668 28.597c-.863 3.31-4.247 5.295-7.558 4.432-3.31-.863-5.295-4.247-4.431-7.558.863-3.311 4.247-5.295 7.557-4.432 3.312.864 5.295 4.247 4.432 7.558m-18.44-5.43l-.218.836c-1.911 7.33 2.482 14.824 9.813 16.736L88.79 51.943c7.33 1.912 14.824-2.482 16.735-9.813l4.573-17.534c1.912-7.332-2.482-14.825-9.813-16.737l-26.268-6.85c-16.554-4.316-33.473 5.605-37.79 22.159" transform="translate(389.156 200.453)"/>
            <path fill="#00D170" d="M33.038 68.027c3.188-1.077 4.849-4.428 3.771-7.616-1.077-3.189-4.427-4.848-7.616-3.771-3.188 1.076-4.847 4.428-3.771 7.616 1.077 3.188 4.542 4.809 7.616 3.771m-6.224-26.695C36.84 39.088 47.2 44.596 51.151 54.045c3.492 8.462 1.286 17.707-4.734 23.546-1.742 1.603-2.303 4.076-1.572 6.239l.615 1.822c.462 1.367 1.226 2.504 2.294 3.412l1.945 1.627c2.135 1.816 3.135 4.776 2.576 7.629-.558 2.853.403 5.7 2.576 7.63l.04.114c2.134 1.816 3.096 4.663 2.651 7.477l-.635 3.005c-.299 1.37-.103 2.699.32 3.952l.499 1.48c1.04 3.075-.62 6.426-3.695 7.464-3.074 1.039-6.426-.621-7.464-3.695L33.724 87.713c-.731-2.164-2.562-3.83-4.919-4.048-8.062-.957-15.077-6.326-17.845-14.526-4.151-11.918 3.095-25.021 15.854-27.807" transform="translate(389.156 200.453)"/>
            <path fill="#0048D9" d="M50.408 28.597c-.863 3.31-4.247 5.295-7.558 4.432-3.31-.863-5.295-4.247-4.43-7.558.862-3.311 4.246-5.295 7.556-4.432 3.311.864 5.295 4.247 4.432 7.558m-18.44-5.43l-.218.836c-1.91 7.33 2.482 14.824 9.813 16.736L84.53 51.943c7.332 1.912 14.825-2.482 16.736-9.813l4.573-17.534c1.912-7.332-2.482-14.825-9.814-16.737l-26.267-6.85c-16.554-4.316-33.474 5.605-37.79 22.159" transform="translate(389.156 200.453)"/>
            <path fill="#061C3F" d="M96.395 20.12l-6.063 23.253c-.313 1.2-1.539 1.918-2.738 1.605l-8.575-2.235c-1.199-.313-1.918-1.539-1.605-2.739l6.063-23.253c.313-1.199 1.538-1.918 2.737-1.605l8.576 2.236c1.2.313 1.917 1.54 1.605 2.738M79.851 15.806L73.788 39.06c-.313 1.2-1.54 1.918-2.739 1.605l-8.835-2.303c-1.199-.313-1.918-1.539-1.605-2.739l6.063-23.253c.313-1.199 1.54-1.917 2.74-1.605l8.834 2.304c1.2.313 1.917 1.54 1.605 2.738" transform="translate(389.156 200.453)"/>
            <path fill="#FFF" d="M95.393 20.35l-5.94 22.786c-.314 1.199-1.539 1.919-2.739 1.606l-8.196-2.138c-1.199-.312-1.918-1.538-1.605-2.737l5.941-22.786c.312-1.2 1.54-1.917 2.738-1.605l8.196 2.137c1.2.313 1.918 1.539 1.605 2.738M78.793 16.022l-5.941 22.785c-.313 1.2-1.538 1.918-2.74 1.606l-8.194-2.138c-1.2-.313-1.918-1.538-1.605-2.738l5.94-22.785c.313-1.199 1.539-1.918 2.738-1.605l8.197 2.137c1.199.313 1.917 1.54 1.605 2.738" transform="translate(389.156 200.453)"/>
            <path fill="#FFCE00" d="M41.717 21.478c-.804.388-1.51.952-2.081 1.648 2.908 2.586 5.094 5.916 6.319 9.638 1.5 4.558 1.488 9.339-.004 13.868.663.614 1.28 1.277 1.865 1.974l.098.07c2.086-5.29 2.28-11.442.538-16.734-1.322-4.015-3.651-7.616-6.735-10.464M31.8 60.82C20.163 64.652 7.578 58.302 3.746 46.664-.086 35.028 6.264 22.442 17.9 18.61c4.835-1.593 10.652-1.185 15.41.627.337-.818.68-1.63 1.08-2.407-5.347-2.073-11.86-2.513-17.313-.718C4.065 20.399-3.036 34.472 1.248 47.487c4.286 13.013 18.36 20.115 31.374 15.83 1.538-.507 3.014-1.18 4.416-1.967-.053-.313-.123-.626-.228-.94-.188-.553-.463-1.041-.775-1.496-1.335.775-2.756 1.419-4.235 1.906" transform="translate(389.156 200.453)"/>
            <path fill="#151F33" d="M51.092 53.92c.098.062.202.118.295.186-.974-1.909-1.181-4.229-.617-6.313-1.92-2.066-4.218-3.74-6.75-4.924.26.796.397 1.636.423 2.48 2.853 2.2 5.179 5.118 6.649 8.57M42.515 27.558c-.06-.683-.02-1.385.164-2.087.534-2.05 2.043-3.573 3.895-4.244-.171-.063-.347-.116-.525-.165-.04 0-.073.006-.111.006-.674 0-1.286-.09-1.87-.218-2.615.145-4.952 1.95-5.65 4.62-.174.67-.226 1.342-.18 1.996.599-.138 1.23-.234 1.924-.234.859 0 1.639.12 2.353.326" transform="translate(389.156 200.453)"/>
        </g>
    </g>
</svg>
