<svg xmlns="http://www.w3.org/2000/svg" width="48" height="48" fill="none"><path fill="#6F1EC3" fill-rule="evenodd" d="m13.616 3.634.88-.139a60.912 60.912 0 0 1 19 0l.879.14a12 12 0 0 1 9.981 9.98l.14.88a60.915 60.915 0 0 1 0 19l-.14.88a12 12 0 0 1-9.981 9.981l-.88.14a60.915 60.915 0 0 1-19 0l-.88-.14a12 12 0 0 1-9.98-9.981l-.14-.88a60.912 60.912 0 0 1 0-19l.14-.88a12 12 0 0 1 9.98-9.98Z" clip-rule="evenodd"/><path fill="#fff" fill-rule="evenodd" d="m28.149 14.05 1.903 1.904a1.41 1.41 0 0 0 1.994 1.994l1.904 1.903a1.88 1.88 0 0 1 0 2.659L22.51 33.95a1.88 1.88 0 0 1-2.659 0l-1.903-1.904a1.41 1.41 0 0 0-1.994-1.994l-1.903-1.903a1.88 1.88 0 0 1 0-2.659l11.44-11.44a1.88 1.88 0 0 1 2.658 0Zm-.168 9.52-.668.661a.47.47 0 0 0-.003.665l1.044 1.054a.47.47 0 0 0 .665.003l.668-.661a.47.47 0 0 0 .003-.665l-1.044-1.054a.47.47 0 0 0-.665-.003Zm-2.646-2.671-.668.662a.47.47 0 0 0-.003.664l1.191 1.202a.47.47 0 0 0 .665.003l.667-.661a.47.47 0 0 0 .003-.665L26 20.902a.47.47 0 0 0-.665-.003Zm-2.646-2.67-.667.66a.47.47 0 0 0-.003.665l1.19 1.202a.47.47 0 0 0 .665.003l.668-.661a.47.47 0 0 0 .003-.665l-1.191-1.202a.47.47 0 0 0-.665-.003Z" clip-rule="evenodd"/></svg>