<svg xmlns="http://www.w3.org/2000/svg" width="91" height="91"><g fill="none" fill-rule="evenodd"><path fill="#FFF" fill-opacity=".01" d="M.375.91h90v90h-90z"/><path fill="#FF4340" d="m25.675 8.514 2.156-.323a118.244 118.244 0 0 1 35.088 0l2.155.323a21.052 21.052 0 0 1 17.697 17.697l.323 2.155a118.244 118.244 0 0 1 0 35.088l-.323 2.155a21.052 21.052 0 0 1-17.697 17.697l-2.155.323a118.244 118.244 0 0 1-35.088 0l-2.155-.323A21.052 21.052 0 0 1 7.979 65.609l-.323-2.155a118.244 118.244 0 0 1 0-35.088l.323-2.155A21.052 21.052 0 0 1 25.676 8.514z"/><path fill="#FFF" d="M50.104 19.721a4.783 4.783 0 0 1 4.77 4.427l.014.357-.001 4.666h4.846c4.289 0 7.765 2.922 7.765 6.525v21.75c0 3.604-3.476 6.525-7.765 6.525h-.078v1.81a2.449 2.449 0 0 1-4.885.268l-.014-.267-.001-1.448H36.321l.001 1.448a2.45 2.45 0 0 1-2.183 2.436l-.267.014a2.45 2.45 0 0 1-2.435-2.183l-.015-.267v-1.81h-.16c-4.288 0-7.764-2.922-7.764-6.526v-21.75c0-3.603 3.476-6.525 7.765-6.525h4.724v-4.666a4.783 4.783 0 0 1 4.427-4.77l.357-.014h9.333zm-.116 4.9h-9.1l-.001 4.55h9.1v-4.55z"/><path fill="#FF4340" d="M34.238 28.283h24.8v1h-24.8zm-5.323 35.736h32.631v1H28.915z"/><path fill="#FF4340" fill-rule="nonzero" d="M68.887 42.907v2.4h-46.4v-2.4z"/><path fill="#FF4340" fill-rule="nonzero" d="M38.437 40.605v6.608a2.1 2.1 0 1 1-4.2 0v-6.608a2.1 2.1 0 1 1 4.2 0zm18.4 0v6.608a2.1 2.1 0 1 1-4.2 0v-6.608a2.1 2.1 0 1 1 4.2 0z"/><path fill="#FFF" d="M31.422 46.305h27.615v1H31.422z"/></g></svg>