<svg xmlns="http://www.w3.org/2000/svg" xmlns:xlink="http://www.w3.org/1999/xlink" width="137" height="82"><defs><path id="a" d="M0 .069h62.286v36.667H0z"/></defs><g fill="none" fill-rule="evenodd" transform="translate(0 -1)"><path fill="#F0F0F0" fill-rule="nonzero" d="M.32 74.441C5.04 30.814 27.735 9 68.407 9c15.078 0 29.02 4.896 40.34 13.192a3.398 3.398 0 0 0 3.711.217 11.649 11.649 0 0 1 7.054-1.498c5.543.567 10.005 5.114 10.506 10.693.266 3.003-.58 5.797-2.176 8.016-.775 1.079-.799 2.538-.134 3.694 3.652 6.303 6.582 16.712 8.791 31.229a3 3 0 0 1-2.971 3.451l-130.23-.23a3 3 0 0 1-2.976-3.323z" opacity=".305"/><circle cx="31.5" cy="3.5" r="2.5" fill="#E8E8E8" fill-rule="nonzero"/><path fill="#E1E1E1" d="m21.797 14.383-.34 1.087a.61.61 0 0 1-1.133.082l-.501-1.045a.643.643 0 0 0-.58-.363l-1.144.004a.616.616 0 0 1-.428-1.061l.822-.786a.638.638 0 0 0 .165-.666l-.365-1.092a.61.61 0 0 1 .87-.729l1.005.548c.218.119.486.1.686-.047l.913-.675a.616.616 0 0 1 .97.603l-.204 1.136a.64.64 0 0 0 .256.632l.94.678a.612.612 0 0 1-.278 1.104l-1.126.146a.64.64 0 0 0-.528.444z"/><rect width="73" height="52" x="32" y="31" fill="#ACACAC" rx="6"/><path fill="#151F33" d="M56.474 8.123c0-.762.72-.925 1.608-.925.888 0 33.012-.395 33.9-.395.888 0 1.26 1.219 1.26 1.98 0 .508.087 20.61.258 60.306 0 .762-1.229.212-2.117.212H58.082c-.888 0-1.608-.617-1.608-1.379v-59.8z"/><g transform="rotate(90 43.5 49.5)"><mask id="b" fill="#fff"><use xlink:href="#a"/></mask><path fill="#00D170" d="M1.373 36.737C.615 36.737 0 36.014 0 35.122V1.684C0 .792.615.069 1.373.069h59.54c.758 0 1.373.723 1.373 1.615v33.438c0 .892-.615 1.615-1.373 1.615H1.373z" mask="url(#b)"/></g><path fill="#FFF" fill-opacity=".258" d="M66.391 38c0-3.754 3.631-6.797 8.11-6.797 4.477 0 8.108 3.043 8.108 6.797 0 3.754-3.63 6.797-8.109 6.797-4.478 0-8.109-3.043-8.109-6.797m14.155 25.917v-.006c0-2.91 2.815-5.27 6.287-5.27h.018c.903.002 1.649-.586 1.649-1.343V18.775c0-.758-.746-1.345-1.65-1.343h-.017c-3.472 0-6.287-2.36-6.287-5.27v-.007c.001-.359-.332-.655-.76-.655H69.184c-.428 0-.761.296-.761.655v.007c0 2.91-2.815 5.27-6.287 5.27h-.017c-.887-.002-1.619.575-1.619 1.318v38.572c0 .744.732 1.32 1.62 1.319h.016c3.472 0 6.287 2.36 6.287 5.27v.006c0 .319.293.583.674.583h10.775c.381 0 .675-.264.674-.583"/><path fill="#151F33" d="M36.295 13.385c-.225-.738.405-1.104 1.242-1.36s30.432-9.724 31.27-9.98c.838-.257 1.764.349 1.99 1.086.15.492 7.434 19.366 21.85 56.623.226.737-4.5 2.552-5.338 2.808L55.921 72.16c-.837.256-1.698-.136-1.924-.873l-17.702-57.9z"/><path fill="#00D170" d="M35.669 13.621c-.223-.73.275-1.53 1.111-1.785l31.39-9.597c.838-.256 1.697.129 1.92.858l17.52 57.304c.223.73-.275 1.53-1.112 1.785l-31.389 9.597c-.837.255-1.697-.129-1.92-.859L35.67 13.621z"/><path fill="#FFF" fill-opacity=".256" d="M54.244 39.486c-1.1-3.598 1.454-7.569 5.706-8.868 4.25-1.3 8.59.563 9.69 4.161s-1.455 7.57-5.706 8.87c-4.252 1.3-8.59-.564-9.69-4.163M75.277 60.22l-.002-.006c-.853-2.79 1.128-5.868 4.424-6.876l.017-.005c.858-.26 1.394-1.04 1.172-1.766l-11.29-36.925c-.221-.727-1.101-1.073-1.958-.81l-.018.006c-3.296 1.008-6.658-.437-7.511-3.227l-.002-.006c-.105-.345-.509-.53-.915-.407l-10.065 3.078c-.406.124-.636.504-.53.848l.002.006c.853 2.79-1.129 5.869-4.425 6.877l-.015.004c-.843.256-1.37 1.021-1.152 1.735l11.303 36.97c.218.714 1.083 1.055 1.925.795l.015-.004c3.297-1.008 6.66.436 7.514 3.226l.002.006c.093.306.449.473.81.363l10.23-3.128c.361-.11.563-.448.47-.754"/><rect width="69" height="56" x="33" y="27" fill="#E6E6E6" rx="6"/><path fill="#000" fill-opacity=".147" d="M102 77a6 6 0 0 1-6 6H39a6 6 0 0 1-6-6v-7h69v7z" opacity=".424"/><path fill="#000" fill-opacity=".147" d="M89 46h13v14H89a7 7 0 1 1 0-14z"/><path fill="#151F33" fill-rule="nonzero" d="M90.863 56.905a4 4 0 1 0-1.726-7.81 4 4 0 0 0 1.726 7.81z"/><path fill="#FFB400" fill-rule="nonzero" d="M89.863 56.905a4 4 0 1 0-1.726-7.81 4 4 0 0 0 1.726 7.81z"/></g></svg>