<svg xmlns="http://www.w3.org/2000/svg" xmlns:xlink="http://www.w3.org/1999/xlink" width="137" height="82" viewBox="0 0 137 82">
    <defs>
        <path id="prefix__a" d="M0 0.069L62.286 0.069 62.286 36.736 0 36.736z"/>
    </defs>
    <g fill="none" fill-rule="evenodd" transform="translate(0 -1)">
        <path fill="#F0F0F0" fill-rule="nonzero" d="M.32 74.441C5.04 30.814 27.735 9 68.407 9c15.078 0 29.02 4.896 40.34 13.192 1.089.799 2.545.892 3.711.217 2.044-1.18 4.47-1.762 7.054-1.498 5.543.567 10.005 5.114 10.506 10.693.266 3.003-.58 5.797-2.176 8.016-.775 1.079-.799 2.538-.134 3.694 3.652 6.303 6.582 16.712 8.791 31.229.25 1.638-.876 3.167-2.514 3.417-.151.023-.304.034-.457.034l-130.23-.23C1.642 77.76.3 76.415.304 74.758c0-.106.006-.211.018-.317z" opacity=".305"/>
        <circle cx="31.5" cy="3.5" r="2.5" fill="#E8E8E8" fill-rule="nonzero"/>
        <path fill="#E1E1E1" d="M21.797 14.383l-.34 1.087c-.1.322-.443.501-.765.4-.161-.05-.294-.165-.368-.318l-.501-1.045c-.107-.222-.332-.363-.58-.363l-1.144.004c-.34.001-.617-.274-.618-.614 0-.169.068-.33.19-.447l.822-.786c.18-.171.244-.43.165-.666l-.365-1.092c-.107-.32.065-.665.384-.772.161-.054.337-.039.486.043l1.005.548c.218.119.486.1.686-.047l.913-.675c.273-.201.658-.143.86.13.1.135.14.307.11.473l-.204 1.136c-.043.243.056.488.256.632l.94.678c.275.198.337.58.14.854-.1.137-.25.228-.418.25l-1.126.146c-.247.032-.454.206-.528.444z"/>
        <rect width="73" height="52" x="32" y="31" fill="#ACACAC" rx="6"/>
        <path fill="#151F33" d="M56.474 8.123c0-.762.72-.925 1.608-.925.888 0 33.012-.395 33.9-.395.888 0 1.26 1.219 1.26 1.98 0 .508.087 20.61.258 60.306 0 .762-1.229.212-2.117.212H58.082c-.888 0-1.608-.617-1.608-1.379v-59.8z"/>
        <g transform="rotate(90 43.5 49.5)">
            <mask id="prefix__b" fill="#fff">
                <use xlink:href="#prefix__a"/>
            </mask>
            <path fill="#00D170" d="M1.373 36.737C.615 36.737 0 36.014 0 35.122V1.684C0 .792.615.069 1.373.069h59.54c.758 0 1.373.723 1.373 1.615v33.438c0 .892-.615 1.615-1.373 1.615H1.373z" mask="url(#prefix__b)"/>
        </g>
        <path fill="#FFF" fill-opacity=".258" d="M66.391 38c0-3.754 3.631-6.797 8.11-6.797 4.477 0 8.108 3.043 8.108 6.797 0 3.754-3.63 6.797-8.109 6.797-4.478 0-8.109-3.043-8.109-6.797m14.155 25.917v-.006c0-2.91 2.815-5.27 6.287-5.27h.018c.903.002 1.649-.586 1.649-1.343V18.775c0-.758-.746-1.345-1.65-1.343h-.017c-3.472 0-6.287-2.36-6.287-5.27v-.007c.001-.359-.332-.655-.76-.655H69.184c-.428 0-.761.296-.761.655v.007c0 2.91-2.815 5.27-6.287 5.27h-.017c-.887-.002-1.619.575-1.619 1.318v38.572c0 .744.732 1.32 1.62 1.319h.016c3.472 0 6.287 2.36 6.287 5.27v.006c0 .319.293.583.674.583h10.775c.381 0 .675-.264.674-.583"/>
        <g>
            <path fill="#151F33" d="M1.339 41.071c-.771 0-.937-.71-.937-1.585S0 7.54 0 6.664c0-.876.85-1.585 1.621-1.585.514 0 20.693-1.447 60.537-4.341.771 0 1.125 5.05 1.125 5.926v32.822c0 .876-.626 1.585-1.397 1.585H1.34z" transform="rotate(73 37.525 50.848)"/>
            <path fill="#00D170" d="M1.382 41.739c-.763 0-1.382-.71-1.382-1.585V7.33c0-.876.619-1.585 1.382-1.585h59.922c.763 0 1.382.71 1.382 1.585v32.823c0 .875-.619 1.585-1.382 1.585H1.382z" transform="rotate(73 37.525 50.848)"/>
            <path fill="#FFF" fill-opacity=".256" d="M31.548 31.538c-3.763 0-6.813-3.604-6.813-8.05 0-4.445 3.05-8.05 6.813-8.05s6.813 3.605 6.813 8.05c0 4.446-3.05 8.05-6.813 8.05m25.977-14.052h-.006c-2.917 0-5.282-2.794-5.282-6.241v-.018c.002-.896-.587-1.637-1.346-1.637H12.278c-.76 0-1.348.74-1.346 1.637v.018c0 3.447-2.365 6.24-5.282 6.24h-.007c-.36 0-.656.331-.656.756v10.525c0 .425.296.756.656.755h.007c2.917 0 5.282 2.795 5.282 6.242v.016c-.002.88.576 1.608 1.322 1.608h38.66c.746 0 1.325-.727 1.323-1.608v-.016c0-3.447 2.365-6.242 5.282-6.242h.006c.32 0 .584-.291.584-.669V18.155c0-.378-.264-.67-.584-.67" transform="rotate(73 37.525 50.848)"/>
        </g>
        <rect width="69" height="56" x="33" y="27" fill="#E6E6E6" rx="6"/>
        <path fill="#000" fill-opacity=".147" d="M102 77c0 3.314-2.686 6-6 6H39c-3.314 0-6-2.686-6-6v-7h69v7z" opacity=".424"/>
        <path fill="#000" fill-opacity=".147" d="M89 46h13v14H89c-3.866 0-7-3.134-7-7s3.134-7 7-7z"/>
        <path fill="#151F33" fill-rule="nonzero" d="M90.863 56.905c2.156-.476 3.518-2.61 3.042-4.768-.476-2.156-2.61-3.518-4.768-3.042-2.156.476-3.518 2.61-3.042 4.768.476 2.156 2.61 3.518 4.768 3.042z"/>
        <path fill="#FFB400" fill-rule="nonzero" d="M89.863 56.905c2.156-.476 3.518-2.61 3.042-4.768-.476-2.156-2.61-3.518-4.768-3.042-2.156.476-3.518 2.61-3.042 4.768.476 2.156 2.61 3.518 4.768 3.042z"/>
    </g>
</svg>
